<?xml version="1.0" encoding="UTF-8" standalone="no"?>
<!-- Created with Inkscape (http://www.inkscape.org/) -->

<svg
   xmlns:dc="http://purl.org/dc/elements/1.1/"
   xmlns:cc="http://creativecommons.org/ns#"
   xmlns:rdf="http://www.w3.org/1999/02/22-rdf-syntax-ns#"
   xmlns:svg="http://www.w3.org/2000/svg"
   xmlns="http://www.w3.org/2000/svg"
   xmlns:sodipodi="http://sodipodi.sourceforge.net/DTD/sodipodi-0.dtd"
   xmlns:inkscape="http://www.inkscape.org/namespaces/inkscape"
   width="1493.3334"
   height="213.33333"
   viewBox="0 0 1400 199.99999"
   id="svg4169"
   version="1.1"
   inkscape:version="0.92.1 r"
   sodipodi:docname="icons.svg"
   inkscape:export-filename="/home/jacobian/.conky/themes/02-fan.png"
   inkscape:export-xdpi="90"
   inkscape:export-ydpi="90">
  <defs
     id="defs4171" />
  <sodipodi:namedview
     id="base"
     pagecolor="#ffffff"
     bordercolor="#666666"
     borderopacity="1.0"
     inkscape:pageopacity="0.0"
     inkscape:pageshadow="2"
     inkscape:zoom="0.69590488"
     inkscape:cx="925.28235"
     inkscape:cy="-143.84544"
     inkscape:document-units="px"
     inkscape:current-layer="layer1"
     showgrid="false"
     inkscape:showpageshadow="false"
     inkscape:window-width="1920"
     inkscape:window-height="1046"
     inkscape:window-x="1080"
     inkscape:window-y="18"
     inkscape:window-maximized="1"
     units="px"
     showguides="true"
     inkscape:guide-bbox="true">
    <sodipodi:guide
       position="1156.8713,4.0734902"
       orientation="0,1"
       id="guide4920"
       inkscape:label=""
       inkscape:color="rgb(0,0,255)"
       inkscape:locked="false" />
    <sodipodi:guide
       position="0,199.99999"
       orientation="0,1"
       id="guide5011"
       inkscape:label=""
       inkscape:color="rgb(0,0,255)"
       inkscape:locked="false" />
  </sodipodi:namedview>
  <metadata
     id="metadata4174">
    <rdf:RDF>
      <cc:Work
         rdf:about="">
        <dc:format>image/svg+xml</dc:format>
        <dc:type
           rdf:resource="http://purl.org/dc/dcmitype/StillImage" />
        <dc:title></dc:title>
      </cc:Work>
    </rdf:RDF>
  </metadata>
  <g
     inkscape:label="Capa 1"
     inkscape:groupmode="layer"
     id="layer1"
     transform="translate(0,-852.36225)">
    <path
       style="display:inline;opacity:1;fill:#1a1a1a;fill-opacity:1;fill-rule:evenodd;stroke:none"
       d="m 1.5e-6,852.3622 v 200 H 200 v -200 z m 20.4702105,9.26286 c 6.185429,0 11.207352,5.02192 11.207352,11.20735 0,6.18543 -5.021923,11.20735 -11.207352,11.20735 -6.185429,0 -11.2073515,-5.02192 -11.2073515,-11.20735 0,-6.18543 5.0219225,-11.20735 11.2073515,-11.20735 z m 159.059528,0 c 6.18549,0 11.2074,5.02192 11.2074,11.20735 0,6.18543 -5.02191,11.20735 -11.2074,11.20735 -6.18539,0 -11.2073,-5.02192 -11.2073,-11.20735 0,-6.18543 5.02191,-11.20735 11.2073,-11.20735 z m -79.547461,0.0353 c 50.081211,0 90.684161,40.60296 90.684161,90.68409 0,50.08115 -40.60295,90.68415 -90.684162,90.68415 -50.081099,0 -90.6840635,-40.603 -90.6840635,-90.68415 0,-50.08113 40.6029645,-90.68409 90.6840645,-90.68409 z m -24.040977,9.82853 c -16.253418,0.15024 -41.448541,23.57574 -36.627182,28.42495 4.956634,4.98526 17.212004,2.24815 45.289016,25.80873 -0.02806,0.0162 -0.04277,0.0544 -0.07071,0.0707 -0.03609,0.0212 -0.07003,0.0494 -0.106008,0.0707 -0.116675,0.0688 -0.237864,0.14184 -0.353544,0.21213 -0.04537,0.0275 -0.09616,0.043 -0.141418,0.0707 -0.217907,0.13351 -0.458305,0.25082 -0.671734,0.3889 -0.14411,0.0932 -0.281578,0.2224 -0.424252,0.31819 -0.40493,0.27205 -0.813945,0.52493 -1.20205,0.81315 -0.146588,0.10907 -0.279431,0.2417 -0.424253,0.35355 -0.02602,0.02 -0.0448,0.0507 -0.07071,0.0707 -0.125343,0.0972 -0.265413,0.18393 -0.388899,0.28283 -0.0982,0.0791 -0.185574,0.16722 -0.282835,0.24748 -0.02546,0.0211 -0.04525,0.0497 -0.07071,0.0707 -0.0327,0.027 -0.07365,0.0436 -0.106007,0.0707 -0.04514,0.0377 -0.0965,0.0681 -0.141418,0.10601 -0.123067,0.10397 -0.231936,0.21215 -0.353544,0.31819 -0.06958,0.0605 -0.143228,0.11567 -0.212126,0.17677 -0.146079,0.12978 -0.280392,0.25605 -0.424253,0.3889 -0.276274,0.25448 -0.547762,0.51462 -0.813152,0.7778 -0.05894,0.0586 -0.118303,0.11773 -0.176772,0.17677 -0.02331,0.0235 -0.0474,0.0471 -0.07071,0.0707 -0.01018,0.0113 -0.02478,0.0244 -0.0353,0.0353 -0.315508,0.32116 -0.619749,0.65686 -0.919215,0.98993 -0.03394,0.0379 -0.07241,0.068 -0.106007,0.10601 -0.01674,0.0188 -0.01867,0.0519 -0.0353,0.0707 -0.0439,0.0496 -0.09786,0.0915 -0.141418,0.14142 -0.176727,0.20217 -0.35945,0.39481 -0.530316,0.60103 -10.115144,-2.98334 -47.179295,-13.00445 -56.567077,-2.54552 -0.677639,0.75495 -1.269965,1.63746 -1.803075,2.58087 -7.9966045,14.15099 -0.317138,47.6762 6.293087,45.9254 6.796738,-1.80024 10.548594,-13.8018 45.00618,-26.33905 -4.5e-5,0.036 -7.9e-5,0.0701 0,0.10601 0.0011,0.44774 0.01437,0.89507 0.0353,1.34347 0.0057,0.11772 -0.0068,0.23616 0,0.35354 0.01312,0.22499 0.05261,0.44674 0.07071,0.67173 0.03518,0.44242 0.08768,0.87118 0.141417,1.30812 0.01018,0.0836 0.02444,0.16412 0.0353,0.24748 0.0034,0.0236 -0.0034,0.0471 0,0.0707 0.0079,0.06 0.02704,0.11691 0.0353,0.17677 0.0034,0.0235 -0.0034,0.0472 0,0.0707 0.03202,0.22531 0.06912,0.44802 0.106007,0.67173 0.0034,0.0229 -0.0034,0.0479 0,0.0707 0.01991,0.11816 0.04944,0.23549 0.07071,0.35355 0.0068,0.0367 0.02874,0.0696 0.0353,0.106 0.02195,0.11962 0.04729,0.23405 0.07071,0.35355 0.01799,0.0923 0.01663,0.19084 0.0353,0.28283 0.02195,0.10612 0.04763,0.21229 0.07071,0.31819 0.0023,0.0113 -0.0023,0.0241 0,0.0353 0.03337,0.15282 0.07037,0.30705 0.106007,0.45961 0.07784,0.33362 0.158829,0.66058 0.247481,0.98992 0.01233,0.0458 0.02297,0.0956 0.0353,0.14142 0.0068,0.0252 0.02828,0.0455 0.0353,0.0707 0.0034,0.0102 -0.0034,0.0249 0,0.0353 0.109062,0.39195 0.229482,0.78121 0.353545,1.16669 0.01131,0.035 0.02398,0.0713 0.0353,0.10601 0.0034,0.0113 -0.0034,0.0246 0,0.0353 0.01505,0.0457 0.02014,0.0957 0.0353,0.14141 0.03157,0.0955 0.07354,0.18783 0.106007,0.28284 0.02048,0.0596 0.04978,0.11726 0.07071,0.17677 0.04842,0.13829 0.09107,0.28688 0.141418,0.42425 0.01324,0.036 0.02206,0.0702 0.0353,0.10601 -7.641216,7.26831 -34.839311,34.36896 -30.475512,47.72847 0.314999,0.9644 0.757648,1.9303 1.308114,2.8637 8.256824,14.0008 41.131403,24.1005 42.920269,17.5005 1.83929,-6.7862 -6.653499,-16.0394 -0.282835,-52.14782 0.01753,0.0102 0.05317,-0.0102 0.07071,0 0.01256,0.007 0.02297,0.0282 0.0353,0.0353 0.129697,0.0742 0.25858,0.14005 0.388899,0.21213 0.02319,0.0128 0.04752,0.0226 0.07071,0.0353 0.2231,0.12285 0.445296,0.23612 0.671734,0.35354 0.01414,0.007 0.02127,0.0281 0.0353,0.0353 0.01425,0.008 0.02116,0.0281 0.0353,0.0353 0.150491,0.0775 0.308393,0.13737 0.459608,0.21212 0.08621,0.0425 0.160786,0.0997 0.247481,0.14142 0.05747,0.0276 0.119164,0.0435 0.176772,0.0707 0.09469,0.045 0.187633,0.0973 0.282835,0.14142 0.05657,0.0261 0.120036,0.0449 0.176773,0.0707 0.03914,0.0179 0.06686,0.0531 0.106006,0.0707 0.01923,0.009 0.05148,-0.009 0.07071,0 0.130602,0.0581 0.25755,0.12045 0.388899,0.17677 0.131032,0.0564 0.256927,0.12209 0.388898,0.17677 0.02432,0.0102 0.04639,0.0253 0.07071,0.0353 0.03417,0.0141 0.07184,0.0214 0.106008,0.0353 0.0493,0.02 0.092,0.0509 0.14142,0.0707 0.0579,0.0232 0.11871,0.0478 0.17677,0.0707 0.0937,0.0369 0.18895,0.0702 0.28284,0.10601 0.0688,0.0263 0.14315,0.0449 0.21213,0.0707 0.0604,0.0226 0.11613,0.0485 0.17677,0.0707 0.0587,0.0216 0.11784,0.0494 0.17677,0.0707 0.0447,0.0162 0.0966,0.0193 0.14142,0.0353 0.10465,0.0372 0.21328,0.07 0.31819,0.106 0.0355,0.0122 0.0706,0.0233 0.106,0.0353 0.0139,0.005 0.0214,0.0308 0.0353,0.0353 0.0346,0.0117 0.0716,0.024 0.10601,0.0353 0.18883,0.0628 0.37522,0.11753 0.56567,0.17677 0.0472,0.0147 0.0942,0.0209 0.14142,0.0353 0.0465,0.0143 0.0948,0.0214 0.14141,0.0353 0.20391,0.0614 0.39646,0.15513 0.60103,0.21213 0.0459,0.0128 0.0954,0.0229 0.14142,0.0353 0.069,0.0188 0.14294,0.0171 0.21212,0.0353 0.0252,0.007 0.0455,0.0289 0.0707,0.0353 0.0467,0.0123 0.0947,0.0233 0.14142,0.0353 0.0359,0.009 0.0701,0.0263 0.10601,0.0353 0.26696,0.0679 0.5453,0.11631 0.81315,0.17677 0.2001,0.0451 0.39946,0.10024 0.60102,0.14142 0.33818,0.0692 0.68607,0.11927 1.02525,0.17677 0.001,2.8e-4 -0.001,0.0351 0,0.0353 2.4842,10.28775 12.351419,47.34058 26.091569,50.23878 0.99263,0.2093 2.0277,0.2928 3.11118,0.2828 16.25342,-0.1502 41.44862,-23.5759 36.62719,-28.4251 -4.95664,-4.98522 -17.21201,-2.2481 -45.28896,-25.8087 0.0283,-0.0163 0.043,-0.0543 0.0701,-0.0707 0.0452,-0.0263 0.0962,-0.0442 0.14142,-0.0707 0.10974,-0.0646 0.20964,-0.14636 0.31813,-0.21213 0.0453,-0.0276 0.0962,-0.0429 0.14142,-0.0707 0.0724,-0.0445 0.13983,-0.0963 0.21213,-0.14142 0.10974,-0.0686 0.20963,-0.14222 0.31824,-0.21212 0.0362,-0.0231 0.0702,-0.0475 0.10635,-0.0707 0.20194,-0.13049 0.40185,-0.25346 0.60097,-0.3889 0.118,-0.0803 0.23667,-0.16541 0.35354,-0.24748 0.0136,-0.009 0.0226,-0.026 0.0351,-0.0353 0.0125,-0.009 0.0226,-0.0261 0.0351,-0.0353 0.0113,-0.006 0.0283,0.006 0.0351,0 0.0769,-0.0544 0.17117,-0.0863 0.24753,-0.14141 0.17706,-0.12772 0.3566,-0.25796 0.53026,-0.3889 0.086,-0.0651 0.16212,-0.14615 0.24754,-0.21213 0.026,-0.0204 0.0441,-0.0502 0.0701,-0.0707 0.0339,-0.026 0.0724,-0.0446 0.10635,-0.0707 0.0916,-0.0723 0.19142,-0.13874 0.28284,-0.21212 0.0984,-0.079 0.18542,-0.16749 0.28283,-0.24748 0.0453,-0.0373 0.0962,-0.0686 0.14142,-0.10601 0.0124,-0.0102 0.0226,-0.0248 0.0351,-0.0353 0.0125,-0.0102 0.0226,-0.0248 0.0351,-0.0353 0.026,-0.0213 0.0453,-0.0493 0.0702,-0.0707 0.0385,-0.032 0.069,-0.0739 0.10634,-0.106 0.0113,-0.006 0.0294,0.006 0.0351,0 0.15183,-0.12978 0.30999,-0.25589 0.45955,-0.3889 0.4901,-0.43463 0.95701,-0.88238 1.41418,-1.34347 0.0351,-0.0358 0.0701,-0.07 0.10635,-0.10601 0.2188,-0.22312 0.4238,-0.44103 0.63638,-0.67173 0.0622,-0.0669 0.11573,-0.14474 0.17682,-0.21213 0.0226,-0.0245 0.0487,-0.046 0.0702,-0.0707 0.017,-0.0183 0.0192,-0.0524 0.0351,-0.0707 0.0272,-0.0307 0.0792,-0.0399 0.10635,-0.0707 0.017,-0.0189 0.0181,-0.0518 0.0351,-0.0707 0.0283,-0.0315 0.043,-0.0746 0.0701,-0.10601 0.0113,-0.0122 0.0249,-0.0232 0.0351,-0.0353 0.0113,-0.0126 0.0249,-0.023 0.0351,-0.0353 0.14176,-0.16292 0.32085,-0.29317 0.45955,-0.45961 0.0272,-0.0329 0.043,-0.073 0.0701,-0.10601 10.11521,2.98335 47.17932,12.96909 56.56707,2.51017 0.67768,-0.75496 1.27005,-1.60211 1.80314,-2.54552 7.99654,-14.15099 0.31711,-47.67622 -6.29309,-45.9254 -6.79676,1.80023 -10.54863,13.80179 -45.00624,26.33905 0,-0.0353 1.2e-4,-0.0708 0,-0.10601 -5.6e-4,-0.23357 -0.0294,-0.4733 -0.0351,-0.70709 0,-0.21064 0.0113,-0.42681 0,-0.63638 -0.0113,-0.22162 -0.0204,-0.45006 -0.0351,-0.67173 -0.0158,-0.22542 -0.0509,-0.44767 -0.0701,-0.67174 -0.0113,-0.11994 -0.0238,-0.23362 -0.0351,-0.35354 -0.0158,-0.15678 -0.052,-0.30353 -0.0701,-0.45961 0,-0.0467 0.0113,-0.0947 0,-0.14142 -0.001,-0.0119 0.001,-0.0235 0,-0.0353 0,-0.0479 -0.0294,-0.0936 -0.0351,-0.14142 -0.0113,-0.058 0.0113,-0.11878 0,-0.17677 -0.0249,-0.18584 -0.0419,-0.38003 -0.0701,-0.56567 -0.0305,-0.20068 -0.0713,-0.40164 -0.10635,-0.60103 -0.0113,-0.0588 -0.0249,-0.11793 -0.0351,-0.17677 -0.0113,-0.0481 -0.026,-0.0933 -0.0351,-0.14142 -0.0362,-0.20062 -0.0656,-0.40178 -0.10635,-0.60102 -0.10182,-0.49279 -0.22695,-0.99494 -0.35354,-1.48489 -0.0238,-0.0932 -0.0464,-0.18996 -0.0702,-0.28284 -0.0124,-0.0468 -0.0226,-0.0947 -0.0351,-0.14141 -0.0124,-0.0467 -0.0226,-0.0947 -0.0351,-0.14142 -0.0124,-0.0467 -0.0226,-0.0948 -0.0351,-0.14142 -0.11087,-0.39332 -0.26259,-0.77995 -0.38884,-1.16669 -0.11201,-0.34305 -0.19482,-0.68766 -0.31825,-1.02528 -0.017,-0.0457 -0.0181,-0.0958 -0.0351,-0.14142 7.67921,-7.30731 34.83412,-34.38509 30.47551,-47.72847 -0.31496,-0.96432 -0.75766,-1.89496 -1.30806,-2.82835 -8.2546,-13.99884 -41.16567,-24.09951 -42.95454,-17.49948 -1.83923,6.78616 6.65353,16.03928 0.28283,52.14777 -0.0826,-0.0476 -0.1645,-0.0945 -0.24742,-0.14142 -0.0464,-0.026 -0.095,-0.0449 -0.14142,-0.0707 -0.0509,-0.0287 -0.0894,-0.0777 -0.14142,-0.106 -0.0464,-0.0255 -0.095,-0.0455 -0.14142,-0.0707 -0.17637,-0.096 -0.35184,-0.19021 -0.53037,-0.28284 -0.0113,-0.005 -0.026,0.005 -0.0351,0 -0.16257,-0.0842 -0.33069,-0.16613 -0.49496,-0.24748 -0.0373,-0.0186 -0.069,-0.0523 -0.10635,-0.0707 -0.19753,-0.0968 -0.40106,-0.19015 -0.60097,-0.28283 -0.3041,-0.14091 -0.61262,-0.29411 -0.91921,-0.42425 -0.10409,-0.0441 -0.21337,-0.0633 -0.31825,-0.10601 -0.0249,-0.0102 -0.0464,-0.0255 -0.0701,-0.0353 -0.27141,-0.11098 -0.53999,-0.21552 -0.8131,-0.31819 -0.06,-0.0224 -0.11664,-0.0487 -0.17683,-0.0707 -0.10295,-0.0377 -0.21461,-0.0695 -0.31813,-0.106 -0.10521,-0.0376 -0.21224,-0.0698 -0.31825,-0.10601 -0.0464,-0.0159 -0.095,-0.0197 -0.14141,-0.0353 -0.22763,-0.0768 -0.44168,-0.17595 -0.67168,-0.24748 -0.0566,-0.0178 -0.11947,-0.018 -0.17683,-0.0353 -0.15454,-0.0474 -0.30456,-0.0965 -0.45955,-0.14142 -0.0611,-0.0175 -0.11562,-0.0535 -0.17683,-0.0707 -0.0826,-0.0231 -0.16495,-0.0483 -0.24742,-0.0707 -0.0577,-0.0157 -0.11857,-0.02 -0.17683,-0.0353 -0.026,-0.007 -0.0453,-0.0287 -0.0701,-0.0353 -0.0464,-0.0122 -0.095,-0.0235 -0.14141,-0.0353 -0.12943,-0.0335 -0.25919,-0.0389 -0.38885,-0.0707 -0.17807,-0.0433 -0.35116,-0.10114 -0.53037,-0.14141 -0.12795,-0.0288 -0.26032,-0.0435 -0.38884,-0.0707 -0.0588,-0.0125 -0.11766,-0.0233 -0.17683,-0.0353 -0.17739,-0.0364 -0.35185,-0.0728 -0.53026,-0.10601 -0.17694,-0.0333 -0.3532,-0.0761 -0.53037,-0.106 -2.47391,-10.25164 -12.339949,-47.37341 -26.091539,-50.27399 -0.992616,-0.20937 -2.027624,-0.29285 -3.111189,-0.28284 z m 24.040977,58.08731 c 0.477881,1.2e-4 0.974091,0.006 1.449591,0.0353 0.0588,0.003 0.11834,-0.005 0.17672,0 0.095,0.007 0.18757,0.0275 0.28283,0.0353 0.47879,0.0399 0.93981,0.10691 1.41418,0.17677 0.41407,0.0607 0.8252,0.12801 1.23746,0.21213 0.15058,0.0307 0.30965,0.037 0.45955,0.0707 0.0249,0.006 0.0453,0.0298 0.0701,0.0353 0.0939,0.0214 0.1895,0.0482 0.28283,0.0707 0.17378,0.0422 0.35717,0.0597 0.53037,0.10601 0.0713,0.0191 0.14086,0.0508 0.21213,0.0707 0.14187,0.0395 0.28272,0.099 0.42425,0.14142 0.19957,0.0594 0.4031,0.11189 0.60097,0.17677 0.0113,0.003 0.0249,-0.003 0.0351,0 0.0113,0.003 0.0249,-0.003 0.0351,0 0.15657,0.0521 0.30455,0.12133 0.45966,0.17677 0.17977,0.0643 0.35264,0.14349 0.53026,0.21213 0.17389,0.0672 0.35863,0.10555 0.53037,0.17677 0.13112,0.054 0.25863,0.12035 0.38884,0.17677 0.17072,0.0747 0.32651,0.16884 0.49497,0.24748 0.0566,0.0265 0.12003,0.0437 0.17682,0.0707 0.14369,0.0686 0.28216,0.14065 0.42426,0.21213 0.0238,0.0118 0.0475,0.0235 0.0701,0.0353 0.0328,0.0168 0.0724,0.0183 0.10635,0.0353 0.0373,0.0192 0.069,0.0513 0.10634,0.0707 0.0373,0.0196 0.069,0.051 0.10635,0.0707 0.2653,0.13875 0.51759,0.27488 0.7778,0.42425 0.34902,0.20204 0.72349,0.38133 1.06063,0.60103 0.31463,0.20394 0.61398,0.45166 0.91921,0.67173 0.11823,0.0853 0.23725,0.16024 0.35355,0.24748 0.18995,0.14345 0.38036,0.27507 0.56567,0.42426 0.0724,0.0582 0.14051,0.11771 0.21213,0.17677 0.0701,0.0577 0.14254,0.11812 0.21212,0.17677 0.0837,0.0706 0.1645,0.14022 0.24743,0.21213 0.35026,0.30475 0.6943,0.62928 1.02533,0.95457 0.0351,0.0348 0.0713,0.0711 0.10635,0.106 0.21925,0.21782 0.42719,0.44626 0.63638,0.67174 0.0113,0.0121 0.0238,0.0232 0.0351,0.0353 0.0226,0.0245 0.0487,0.046 0.0701,0.0707 0.112,0.12264 0.20862,0.2638 0.31814,0.38889 0.26496,0.30271 0.53071,0.60449 0.77779,0.91922 0.0306,0.0391 0.0758,0.0669 0.10635,0.10601 0.0633,0.0808 0.11517,0.16578 0.17683,0.24748 0.026,0.0338 0.0452,0.0723 0.0701,0.106 0.0656,0.0878 0.14787,0.15872 0.21213,0.24748 0.0147,0.0209 0.0204,0.0497 0.0351,0.0707 0.0407,0.0561 0.0667,0.12032 0.10634,0.17677 0.11642,0.16588 0.24177,0.32635 0.35355,0.49497 0.0475,0.0718 0.0939,0.13953 0.14142,0.21212 0.10521,0.16276 0.21642,0.32937 0.31813,0.49497 0.21088,0.34323 0.40819,0.7057 0.60108,1.06063 0.21462,0.39509 0.40943,0.79331 0.60097,1.20205 0.095,0.20203 0.19403,0.39581 0.28284,0.60102 0.0249,0.0587 0.0453,0.11783 0.0701,0.17678 0.0848,0.20101 0.16857,0.39865 0.24754,0.60102 0.0362,0.0939 0.0701,0.18838 0.10634,0.28284 0,0.0102 0,0.025 0,0.0353 0.0294,0.0803 0.0419,0.16676 0.0701,0.24749 0.21382,0.59591 0.43726,1.19191 0.60096,1.80307 0.17638,0.65814 0.30716,1.3435 0.42426,2.0152 0.0113,0.048 0.0271,0.0935 0.0351,0.14142 0.0113,0.0595 0.026,0.11725 0.0351,0.17677 0.0713,0.44778 0.0962,0.89156 0.14142,1.34347 0.0441,0.45074 0.0894,0.89279 0.10634,1.34347 9.1e-4,0.0233 -7.9e-4,0.0474 0,0.0707 0,0.16572 0.0328,0.32836 0.0351,0.49496 9e-4,0.0581 -4.6e-4,0.11854 0,0.17677 2.2e-4,0.0238 0,0.047 0,0.0707 3.4e-4,0.39099 -0.0158,0.77714 -0.0351,1.1667 -10e-4,0.0354 0,0.0707 0,0.106 -10e-4,0.0234 0.001,0.0473 0,0.0707 -0.0192,0.34478 -0.0713,0.68058 -0.10634,1.02528 -0.0498,0.48058 -0.0973,0.97378 -0.17672,1.44953 -0.10634,0.63622 -0.22898,1.2847 -0.38895,1.90914 0,0.0113 0,0.0242 0,0.0353 -0.0271,0.10691 -0.0769,0.21166 -0.10635,0.31819 -0.0701,0.25583 -0.13361,0.52563 -0.21213,0.7778 -0.12603,0.40517 -0.2757,0.80421 -0.42425,1.20205 -0.112,0.2976 -0.23023,0.5923 -0.35354,0.88386 -0.0113,0.0242 -0.0249,0.0465 -0.0351,0.0707 -0.28035,0.65631 -0.58072,1.28616 -0.91922,1.90913 -0.11087,0.20306 -0.23724,0.40177 -0.35354,0.60103 -0.0113,0.014 -0.0272,0.0214 -0.0351,0.0353 0,0.008 0,0.0274 0,0.0353 -0.0747,0.12624 -0.13554,0.26424 -0.21213,0.3889 -0.0928,0.15195 -0.18599,0.31005 -0.28284,0.45961 -0.0826,0.12771 -0.16234,0.26296 -0.24742,0.3889 -0.17887,0.2652 -0.37515,0.51959 -0.56567,0.7778 -0.14165,0.19147 -0.27695,0.37885 -0.42425,0.56567 -0.0837,0.10646 -0.16167,0.21324 -0.24754,0.31819 -0.28985,0.35508 -0.60629,0.68637 -0.91922,1.02528 -0.0226,0.0245 -0.0475,0.0463 -0.0701,0.0707 -0.13158,0.14123 -0.25421,0.28691 -0.38884,0.42426 -0.10409,0.10646 -0.21202,0.2138 -0.31825,0.31819 -0.28374,0.27888 -0.58581,0.5493 -0.8838,0.81315 -0.0554,0.0497 -0.12026,0.0923 -0.17683,0.14142 -0.17219,0.1489 -0.31881,0.31639 -0.49496,0.4596 -0.0792,0.0647 -0.16744,0.11303 -0.24743,0.17678 -0.026,0.0207 -0.0441,0.0501 -0.0701,0.0707 -0.2205,0.17387 -0.44484,0.32915 -0.67179,0.49496 -0.0215,0.0156 -0.0486,0.0198 -0.0701,0.0353 -0.0136,0.009 -0.0226,0.0259 -0.0351,0.0353 -0.19312,0.13946 -0.36802,0.29076 -0.56567,0.42426 -0.0566,0.0381 -0.11969,0.0686 -0.17671,0.106 -0.0566,0.0376 -0.1197,0.069 -0.17683,0.10601 -0.0362,0.0233 -0.0701,0.0476 -0.10635,0.0707 -0.11449,0.0735 -0.23758,0.14058 -0.35354,0.21212 -0.0226,0.0139 -0.0475,0.0215 -0.0701,0.0353 -0.0577,0.0356 -0.11833,0.0709 -0.17671,0.10601 -0.4014,0.23896 -0.82339,0.45846 -1.23746,0.67173 -0.18803,0.0976 -0.37459,0.19036 -0.56567,0.28284 -0.47449,0.22815 -0.9613,0.44186 -1.44948,0.63638 -0.0826,0.033 -0.16416,0.074 -0.24754,0.10601 -0.0735,0.0283 -0.13836,0.0784 -0.21212,0.106 -0.0701,0.0261 -0.14187,0.0453 -0.21213,0.0707 -0.0803,0.0293 -0.16642,0.0423 -0.24742,0.0707 -0.44304,0.15482 -0.89207,0.29693 -1.34347,0.42425 -0.0249,0.007 -0.0464,0.0285 -0.0701,0.0353 -0.0713,0.0199 -0.14063,0.0516 -0.21213,0.0707 -0.12637,0.0338 -0.26225,0.0391 -0.38896,0.0707 -0.16755,0.0417 -0.3265,0.1034 -0.49496,0.14142 -0.15216,0.0343 -0.3067,0.0395 -0.45955,0.0707 -0.38941,0.0794 -0.77576,0.15354 -1.16675,0.21213 -0.4307,0.0648 -0.87362,0.10114 -1.30806,0.14142 -0.35037,0.0319 -0.71037,0.0551 -1.06063,0.0707 -0.34257,0.0157 -0.68175,0.0352 -1.025341,0.0353 -0.31983,-2.1e-4 -0.63559,-0.0217 -0.95451,-0.0353 -0.55753,-0.0232 -1.10442,-0.0415 -1.66172,-0.10601 -0.0826,-0.0102 -0.16449,-0.0249 -0.24742,-0.0353 -0.0351,-0.005 -0.0713,0.005 -0.10635,0 -0.10634,-0.0141 -0.2119,-0.055 -0.31824,-0.0707 -0.56726,-0.0833 -1.13338,-0.15561 -1.69702,-0.28283 -0.0939,-0.0212 -0.18904,-0.0483 -0.28283,-0.0707 -0.0362,-0.009 -0.0701,-0.0268 -0.10635,-0.0353 -0.17603,-0.043 -0.35524,-0.0591 -0.53028,-0.106 -0.0611,-0.0165 -0.11581,-0.0537 -0.17677,-0.0707 -0.0113,-0.003 -0.0245,0.003 -0.0353,0 -0.46593,-0.13046 -0.92184,-0.29988 -1.37882,-0.45961 -0.14056,-0.0491 -0.28464,-0.0895 -0.42425,-0.14142 -0.0207,-0.008 -0.05,0.008 -0.0707,0 -0.0837,-0.0312 -0.164141,-0.0739 -0.24748,-0.10601 -0.0142,-0.006 -0.0213,-0.03 -0.0353,-0.0353 -0.0588,-0.0229 -0.118089,-0.0473 -0.17677,-0.0707 -0.13769,-0.0553 -0.28791,-0.0835 -0.42426,-0.14142 -0.0637,-0.0269 -0.11337,-0.0785 -0.17677,-0.10601 -0.0337,-0.0147 -0.0725,-0.0205 -0.10601,-0.0353 -0.0141,-0.006 -0.0213,-0.0291 -0.0353,-0.0353 -0.0102,-0.005 -0.0252,0.005 -0.0353,0 -0.1187,-0.0528 -0.23539,-0.12172 -0.35355,-0.17677 -0.0579,-0.0269 -0.11917,-0.0433 -0.17677,-0.0707 -0.1288,-0.0609 -0.26117,-0.1135 -0.3889,-0.17678 -0.0938,-0.0467 -0.18946,-0.0932 -0.28283,-0.14141 -0.0376,-0.0195 -0.0687,-0.0511 -0.10601,-0.0707 -0.0231,-0.0121 -0.0476,-0.0232 -0.0707,-0.0353 -0.21637,-0.11346 -0.42345,-0.233 -0.63638,-0.35354 -0.0459,-0.0263 -0.0956,-0.0442 -0.14142,-0.0707 -0.12677,-0.0732 -0.228701,-0.17224 -0.353544,-0.24748 -0.05453,-0.0327 -0.122536,-0.0374 -0.176772,-0.0707 -0.07218,-0.0442 -0.140422,-0.0964 -0.212127,-0.14142 -0.08066,-0.051 -0.167495,-0.0895 -0.247481,-0.14142 -0.291026,-0.18829 -0.568793,-0.40161 -0.848506,-0.60102 -0.03462,-0.0247 -0.07173,-0.0458 -0.106007,-0.0707 -0.118338,-0.0853 -0.237265,-0.16019 -0.353544,-0.24748 -0.02116,-0.0158 -0.04967,-0.0195 -0.07071,-0.0353 -0.04718,-0.0356 -0.09447,-0.07 -0.141417,-0.10601 -0.01312,-0.0102 -0.02229,-0.0252 -0.0353,-0.0353 -0.07342,-0.0569 -0.139472,-0.11894 -0.212127,-0.17677 -0.0922,-0.0731 -0.191954,-0.13785 -0.282835,-0.21212 -0.01935,-0.0158 -0.05148,-0.0195 -0.07071,-0.0353 -0.505201,-0.41787 -0.982321,-0.88427 -1.449531,-1.34347 -0.04673,-0.0458 -0.09515,-0.0953 -0.141418,-0.14142 -0.580537,-0.58053 -1.146139,-1.19833 -1.661658,-1.83843 -0.01018,-0.0128 -0.02523,-0.0225 -0.0353,-0.0353 -0.03722,-0.0465 -0.06912,-0.0946 -0.106006,-0.14141 -0.02625,-0.0333 -0.04469,-0.0728 -0.07071,-0.10601 -0.08327,-0.10702 -0.166217,-0.20984 -0.247481,-0.31819 -0.137583,-0.18344 -0.257256,-0.37859 -0.388899,-0.56567 -0.598898,-0.84749 -1.145551,-1.72428 -1.626303,-2.65158 -0.01946,-0.0376 -0.05148,-0.0686 -0.07071,-0.10601 -0.01663,-0.0325 -0.01901,-0.0737 -0.0353,-0.10601 -0.01199,-0.0236 -0.02342,-0.0471 -0.0353,-0.0707 -0.03507,-0.0702 -0.07173,-0.14169 -0.106007,-0.21213 -0.01629,-0.0335 -0.01935,-0.0726 -0.0353,-0.10601 -0.266963,-0.55528 -0.521583,-1.12332 -0.742443,-1.69701 -0.03236,-0.0839 -0.07478,-0.16318 -0.106007,-0.24748 -0.03892,-0.10499 -0.06879,-0.2125 -0.106007,-0.31819 -0.04639,-0.1312 -0.09729,-0.2566 -0.141417,-0.3889 -0.125817,-0.37593 -0.247402,-0.74952 -0.353545,-1.13134 -0.01969,-0.0707 -0.01652,-0.14136 -0.0353,-0.21213 -0.166534,-0.62152 -0.310463,-1.24005 -0.424254,-1.87378 -0.0023,-0.0113 0.0023,-0.0243 0,-0.0353 -0.02704,-0.15263 -0.08236,-0.30676 -0.106006,-0.45961 -0.0057,-0.0346 0.0057,-0.0716 0,-0.106 -0.0023,-0.0113 0.0011,-0.0242 0,-0.0353 -0.06075,-0.4079 -0.102726,-0.82623 -0.141418,-1.23741 -0.01335,-0.14239 -0.02478,-0.28182 -0.0353,-0.42425 -0.0034,-0.0479 -0.03202,-0.0936 -0.0353,-0.14142 -0.0011,-0.0235 0.0011,-0.0472 0,-0.0707 -0.0011,-0.0235 0.0011,-0.0472 0,-0.0707 -0.0045,-0.0826 0.0045,-0.16488 0,-0.24749 -0.0023,-0.047 0.0023,-0.0943 0,-0.14141 -0.0129,-0.27164 -0.03224,-0.54078 -0.0353,-0.81316 -6.57e-4,-0.0713 0,-0.14064 0,-0.21212 3.3e-5,-0.0592 -4.98e-4,-0.11764 0,-0.17677 0.0011,-0.20256 0.02851,-0.39976 0.0353,-0.60103 0.0045,-0.12789 -0.0068,-0.26119 0,-0.3889 0.0045,-0.0939 -0.0057,-0.18927 0,-0.28283 0.0034,-0.0465 -0.0034,-0.0949 0,-0.14142 0.0045,-0.0595 0.03077,-0.11737 0.0353,-0.17677 0.115691,-1.46995 0.348849,-2.93243 0.742443,-4.3486 0.0068,-0.0247 0.0284,-0.046 0.0353,-0.0707 0.0034,-0.0113 -0.0034,-0.0243 0,-0.0353 0.0034,-0.0102 -0.0034,-0.0248 0,-0.0353 0.01301,-0.0459 0.02217,-0.0956 0.0353,-0.14142 0.03824,-0.13084 0.100689,-0.25844 0.141417,-0.3889 0.0034,-0.0102 -0.0034,-0.0249 0,-0.0353 0.107139,-0.34266 0.266205,-0.65441 0.388899,-0.98992 0.02036,-0.056 0.01448,-0.12094 0.0353,-0.17677 0.0091,-0.0247 0.02613,-0.0461 0.0353,-0.0707 0.157041,-0.41639 0.313664,-0.8303 0.494962,-1.23741 0.0045,-0.009 -0.0045,-0.026 0,-0.0353 0.0068,-0.0146 0.02885,-0.0209 0.0353,-0.0353 0.01131,-0.0242 0.02432,-0.0465 0.0353,-0.0707 0.04774,-0.10431 0.09198,-0.21429 0.141418,-0.31819 0.06109,-0.12933 0.113236,-0.26064 0.176772,-0.3889 0.06562,-0.13164 0.143681,-0.25801 0.212127,-0.3889 0.03168,-0.0606 0.07376,-0.1163 0.106007,-0.17677 0.02217,-0.0416 0.0129,-0.0999 0.0353,-0.14142 0.0079,-0.0141 0.02783,-0.0213 0.0353,-0.0353 0.03303,-0.0609 0.07263,-0.11625 0.106007,-0.17678 0.05928,-0.10646 0.115612,-0.21226 0.176772,-0.31819 0.0045,-0.009 -0.0045,-0.0268 0,-0.0353 0.07003,-0.12123 0.140264,-0.2341 0.212127,-0.35355 0.03009,-0.0497 0.07557,-0.092 0.106006,-0.14142 0.0663,-0.10827 0.143975,-0.21098 0.212127,-0.31819 0.120194,-0.18875 0.227999,-0.38074 0.353544,-0.56567 0.05657,-0.0836 0.119232,-0.16486 0.176772,-0.24748 0.07286,-0.10453 0.137413,-0.21479 0.212127,-0.31819 0.08949,-0.12413 0.191174,-0.23168 0.282835,-0.35354 0.117626,-0.1558 0.23205,-0.30696 0.353544,-0.45961 0.347367,-0.43732 0.714228,-0.85932 1.095987,-1.27276 0.163502,-0.17706 0.325238,-0.35792 0.494962,-0.53031 0.04005,-0.0408 0.06584,-0.10092 0.106007,-0.14142 0.01776,-0.0178 0.05283,-0.0175 0.07071,-0.0353 0.03552,-0.0353 0.07037,-0.0709 0.106007,-0.10601 0.46721,-0.4592 0.94433,-0.92559 1.449531,-1.34347 0.04582,-0.0378 0.09526,-0.0687 0.141418,-0.106 0.02557,-0.0207 0.04503,-0.0501 0.07071,-0.0707 0.08711,-0.0701 0.194727,-0.10793 0.282836,-0.17677 0.200451,-0.15701 0.395268,-0.30924 0.601025,-0.45961 0.02116,-0.0155 0.04955,-0.0201 0.07071,-0.0353 0.03451,-0.0249 0.07161,-0.046 0.106007,-0.0707 0.279712,-0.19941 0.557479,-0.41273 0.848506,-0.60102 0.02738,-0.0178 0.04322,-0.0531 0.07071,-0.0707 0.08813,-0.0565 0.19407,-0.0863 0.282835,-0.14142 0.01358,-0.008 0.02172,-0.027 0.0353,-0.0353 0.02896,-0.0179 0.04175,-0.0529 0.07071,-0.0707 0.110984,-0.0682 0.24127,-0.11041 0.353539,-0.17677 0.0588,-0.0346 0.11762,-0.0719 0.17678,-0.106 0.0139,-0.008 0.0215,-0.0274 0.0353,-0.0353 0.16596,-0.0955 0.32764,-0.19195 0.49496,-0.28284 0.0687,-0.0373 0.143061,-0.0695 0.21213,-0.106 0.0322,-0.017 0.0738,-0.0187 0.106,-0.0353 0.0613,-0.0319 0.11518,-0.0748 0.17678,-0.10601 0.0701,-0.0359 0.14174,-0.0709 0.21212,-0.10601 0.0475,-0.0235 0.0938,-0.0475 0.14142,-0.0707 0.12866,-0.063 0.2589,-0.11608 0.3889,-0.17678 0.0337,-0.0157 0.0723,-0.0198 0.10601,-0.0353 0.11883,-0.0549 0.23417,-0.12411 0.35354,-0.17678 0.0958,-0.0423 0.18631,-0.10046 0.28284,-0.14141 0.0786,-0.0333 0.16842,-0.0384 0.24748,-0.0707 0.13086,-0.0539 0.25747,-0.12551 0.3889,-0.17677 0.0102,-0.005 0.0251,0.005 0.0353,0 0.18786,-0.0729 0.37545,-0.14413 0.56567,-0.21213 0.15596,-0.0558 0.303,-0.12457 0.45961,-0.17677 0.0463,-0.0154 0.0952,-0.0203 0.14142,-0.0353 0.31673,-0.10329 0.63373,-0.19349 0.95457,-0.28284 0.0713,-0.0199 0.14074,-0.0516 0.21213,-0.0707 0.17487,-0.0468 0.35441,-0.0634 0.53033,-0.106 0.11857,-0.0289 0.23464,-0.0792 0.35355,-0.10601 0.0226,-0.005 0.0486,0.005 0.0701,0 0.5409,-0.12033 1.08202,-0.20297 1.62631,-0.28283 0.56929,-0.0837 1.12172,-0.17145 1.69701,-0.21213 0.0588,-0.005 0.11822,0.003 0.17671,0 0.46397,-0.0293 0.94807,-0.0346 1.41418,-0.0353 z m -79.512066,91.1083 c 6.185429,0 11.207352,5.0219 11.207352,11.2073 0,6.1855 -5.021923,11.2075 -11.207352,11.2075 -6.185429,0 -11.2073525,-5.022 -11.2073525,-11.2075 0,-6.1854 5.0219235,-11.2073 11.2073525,-11.2073 z m 159.059527,0 c 6.18549,0 11.2074,5.0219 11.2074,11.2073 0,6.1855 -5.02191,11.2075 -11.2074,11.2075 -6.18539,0 -11.2073,-5.022 -11.2073,-11.2075 0,-6.1854 5.02191,-11.2073 11.2073,-11.2073 z"
       id="rect3016"
       inkscape:export-xdpi="90"
       inkscape:export-ydpi="90"
       inkscape:connector-curvature="0"
       inkscape:export-filename="/home/jacobian/.conky/icons/fan.png" />
    <path
       style="display:inline;fill:#1a1a1a;fill-opacity:1;stroke:none"
       d="m 244.0293,0 v 7.7285156 h -2.51563 V 26.800781 l -14.71679,14.689453 h -19.07032 v 2.544922 H 200 v 4.384766 h 7.72656 v 2.515625 h 12.47852 v 8.462891 h -12.47852 v 2.544921 H 200 v 4.386719 h 7.72656 v 2.513672 h 12.47852 v 8.462891 h -12.47852 v 2.546875 H 200 v 4.384765 h 7.72656 v 2.513672 h 12.47852 v 8.433594 h -12.47852 v 2.544922 H 200 v 4.384761 h 7.72656 v 2.51563 h 12.47852 v 8.46289 h -12.47852 v 2.54492 H 200 v 4.38672 h 7.72656 v 2.51367 h 12.47852 v 8.46289 h -12.47852 v 2.54688 H 200 v 4.38476 h 7.72656 v 2.51368 h 12.47852 v 8.43359 h -12.47852 v 2.54492 H 200 v 4.38477 h 7.72656 v 2.51562 h 19.07032 l 14.90234,14.87305 v 19.07226 h 2.54492 V 200 h 4.38281 v -7.72852 h 2.51563 v -12.48046 h 8.46094 v 12.48046 h 2.54492 V 200 h 4.38476 v -7.72852 h 2.51563 v -12.48046 h 8.46094 v 12.48046 h 2.54492 V 200 h 4.38476 v -7.72852 h 2.51367 v -12.48046 h 8.43165 v 12.48046 h 2.54492 V 200 h 4.38476 v -7.72852 h 2.51367 v -12.48046 h 8.4629 v 12.48046 h 2.54492 V 200 h 4.38476 v -7.72852 h 2.51368 v -12.48046 h 8.46289 v 12.48046 h 2.54492 V 200 h 4.38476 v -7.72852 h 2.51367 v -12.48046 h 8.43165 v 12.48046 h 2.54492 V 200 h 4.38476 v -7.72852 h 2.51367 v -19.07226 l 14.6875,-14.6582 h 19.07032 v -2.54688 H 400 v -4.38476 h -7.72656 v -2.51368 h -12.47852 v -8.46484 h 12.47852 v -2.54492 H 400 v -4.38477 h -7.72656 v -2.51367 h -12.47852 v -8.46484 h 12.47852 v -2.54493 H 400 v -4.38476 h -7.72656 v -2.51563 h -12.47852 v -8.43164 h 12.47852 v -2.54492 H 400 v -4.386718 h -7.72656 v -2.513671 h -12.47852 v -8.464844 h 12.47852 V 84.390625 H 400 v -4.384766 h -7.72656 v -2.513671 h -12.47852 v -8.464844 h 12.47852 V 66.482422 H 400 v -4.384766 h -7.72656 v -2.515625 h -12.47852 v -8.43164 h 12.47852 V 48.605469 H 400 V 44.21875 h -7.72656 V 41.705078 H 373.20312 L 358.33203,26.800781 V 7.7285156 h -2.54492 V 0 h -4.38477 v 7.7285156 h -2.51367 V 20.208984 h -8.46289 V 7.7285156 h -2.54492 V 0 h -4.38477 v 7.7285156 h -2.51367 V 20.208984 h -8.46289 V 7.7285156 h -2.54492 V 0 h -4.38281 v 7.7285156 h -2.51563 V 20.208984 h -8.43164 V 7.7285156 h -2.54492 V 0 h -4.38477 v 7.7285156 h -2.51367 V 20.208984 h -8.46094 V 7.7285156 h -2.54492 V 0 h -4.38476 v 7.7285156 h -2.51563 V 20.208984 h -8.46094 V 7.7285156 h -2.54492 V 0 h -4.38476 v 7.7285156 h -2.51368 V 20.208984 h -8.43164 V 7.7285156 h -2.54492 V 0 Z m 7.35742,26.800781 h 97.07226 l 24.74414,24.564453 v 97.085936 l -24.74414,24.74805 H 251.38672 L 226.79688,148.45117 V 51.365234 Z m 3.4043,7.94336 -20.02149,20.054687 v 90.218752 l 20.05274,20.05469 h 90.20312 l 20.05273,-20.05469 V 54.798828 L 345.05664,34.744141 Z m 0.85742,104.046879 c 2.50613,0 4.53906,2.03252 4.53906,4.53906 0,2.50654 -2.03293,4.53906 -4.53906,4.53906 -2.50613,0 -4.53711,-2.03252 -4.53711,-4.53906 0,-2.50654 2.03098,-4.53906 4.53711,-4.53906 z"
       transform="translate(0,852.36224)"
       id="rect8153"
       inkscape:export-xdpi="90"
       inkscape:export-ydpi="90"
       inkscape:connector-curvature="0"
       inkscape:export-filename="/home/jacobian/.conky/icons/cpu.png" />
    <path
       style="display:inline;fill:#1a1a1a;fill-opacity:1;stroke:none"
       d="m 677.27344,0 c -5.02256,0 -9.0918,4.0690769 -9.0918,9.0917969 V 18.181641 H 650 c -7.51839,0 -13.63672,6.118528 -13.63672,13.636718 V 186.36328 C 636.36328,193.88148 642.48161,200 650,200 h 100 c 7.51839,0 13.63672,-6.11852 13.63672,-13.63672 V 31.818359 c 0,-7.51819 -6.11833,-13.636718 -13.63672,-13.636718 H 731.81836 V 9.0917969 C 731.81836,4.0690769 727.74912,0 722.72656,0 Z M 650,27.273438 H 677.27344 722.72656 750 c 2.50931,0 4.54492,2.035811 4.54492,4.544921 V 186.36328 c 0,2.5091 -2.03561,4.54492 -4.54492,4.54492 H 650 c -2.50931,0 -4.54492,-2.03582 -4.54492,-4.54492 V 31.818359 c 0,-2.50911 2.03561,-4.544921 4.54492,-4.544921 z m 63.1582,35.527343 -41.35742,53.107419 h 26.2168 l -11.17578,39.47266 41.35742,-53.10742 h -26.2168 z"
       transform="translate(0,852.36224)"
       id="polygon3"
       inkscape:export-xdpi="90"
       inkscape:export-ydpi="90"
       inkscape:connector-curvature="0"
       inkscape:export-filename="/home/jacobian/.conky/icons/bat.png" />
    <path
       style="fill:#1a1a1a;fill-opacity:1;fill-rule:evenodd;stroke:none"
       d="m 545.77344,0 -92.72071,0.22265625 a 2.0303372,2.0303372 0 0 0 -1.45898,0.6015625 l -6.88281,6.97851565 a 2.0303372,2.0303372 0 0 0 -0.57227,1.4277344 V 190.80078 a 2.0303372,2.0303372 0 0 0 0.57227,1.39649 l 6.88281,6.97851 a 2.0303372,2.0303372 0 0 0 1.45898,0.63281 L 545.77344,200 a 2.0303372,2.0303372 0 0 0 1.42773,-0.57031 l 6.97852,-6.88477 a 2.0303372,2.0303372 0 0 0 0.63476,-1.45898 V 8.9140625 A 2.0303372,2.0303372 0 0 0 554.17969,7.4550781 L 547.20117,0.60351562 A 2.0303372,2.0303372 0 0 0 545.77344,0 Z m -0.82422,4.0605469 5.80469,5.7089843 V 190.26172 l -5.80469,5.67773 -91.07227,-0.18945 -5.67773,-5.80469 V 10.087891 l 5.67773,-5.8046879 z m -87.10547,4.5351562 c -0.47617,0.043 -0.93527,0.2616557 -1.26953,0.6035157 l -3.67969,3.8378902 c -0.36532,0.37776 -0.57437,0.902175 -0.57031,1.427735 V 186.13867 c 0,0.5256 0.20499,1.04798 0.57031,1.42578 l 3.67969,3.83985 c 0.38004,0.3843 0.91856,0.60566 1.45898,0.60156 h 83.74219 c 0.55108,0.013 1.10484,-0.20956 1.49219,-0.60156 l 3.64844,-3.83985 c 0.36543,-0.3778 0.57447,-0.90018 0.57031,-1.42578 V 14.464844 c 0,-0.52556 -0.20488,-1.049975 -0.57031,-1.427735 L 543.26758,9.1992188 C 542.88023,8.8071987 542.32647,8.5830331 541.77539,8.5957031 H 458.0332 c -0.0629,-0.003 -0.12601,-0.003 -0.18945,0 z M 420.88867,20.554688 v 4.21875 h -19.1914 v 9.865234 h 19.1914 v 4.21875 H 440.9668 V 20.554688 Z m 138.14453,0 v 18.302734 h 20.07813 v -4.21875 h 19.1914 v -9.865234 h -19.1914 v -4.21875 z M 420.88867,48.708984 v 4.21875 h -19.1914 v 9.865235 h 19.1914 v 4.21875 H 440.9668 V 48.708984 Z m 138.14453,0 v 18.302735 h 20.07813 v -4.21875 h 19.1914 v -9.865235 h -19.1914 v -4.21875 z M 420.88867,76.863281 v 4.21875 h -19.1914 v 9.865235 h 19.1914 v 4.21875 H 440.9668 V 76.863281 Z m 138.14453,0 v 18.302735 h 20.07813 v -4.21875 h 19.1914 v -9.865235 h -19.1914 v -4.21875 z M 420.88867,105.01758 v 4.21875 h -19.1914 v 9.86523 h 19.1914 v 4.21875 h 20.07813 v -18.30273 z m 138.14453,0 v 18.30273 h 20.07813 v -4.21875 h 19.1914 v -9.86523 h -19.1914 v -4.21875 z m -138.14453,28.1543 v 4.21874 h -19.1914 v 9.86524 h 19.1914 v 4.21875 h 20.07813 v -18.30273 z m 138.14453,0 v 18.30273 h 20.07813 v -4.21875 h 19.1914 v -9.86524 h -19.1914 v -4.21874 z m -44.72656,26.47851 h 9.83203 v 9.80273 h 9.80274 v 9.83399 h -9.80274 v -9.80273 h -9.83203 z m -93.41797,1.67578 v 4.21875 h -19.1914 v 9.86524 h 19.1914 v 4.21875 h 20.07813 v -18.30274 z m 138.14453,0 v 18.30274 h 20.07813 v -4.21875 h 19.1914 v -9.86524 h -19.1914 v -4.21875 z"
       transform="translate(0,852.36224)"
       id="rect3004"
       inkscape:export-xdpi="90"
       inkscape:export-ydpi="90"
       inkscape:connector-curvature="0"
       inkscape:export-filename="/home/jacobian/.conky/icons/mem.png" />
    <path
       inkscape:connector-curvature="0"
       style="fill:#1a1a1a;fill-opacity:1;fill-rule:evenodd;stroke:none"
       d="m 1099.9999,852.36218 c -55.2284,0 -99.99996,44.77154 -99.99996,100.00002 0,55.2285 44.77156,100 99.99996,100 55.2285,0 100,-44.7715 100,-100 0,-55.22848 -44.7715,-100.00002 -100,-100.00002 z m -32.7636,52.2461 h 20.9472 v 95.50782 h -20.9472 z m 44.58,0 h 20.9474 v 95.50782 h -20.9474 z"
       id="path3779-5"
       inkscape:export-filename="/home/jacobian/.conky/icons/pause.png"
       inkscape:export-xdpi="90"
       inkscape:export-ydpi="90" />
    <path
       style="fill:#1a1a1a;fill-opacity:1;fill-rule:evenodd;stroke:none"
       d="M 899.99998,852.36218 C 844.77152,852.36218 800,897.1337 800,952.36216 c 0,55.22844 44.77152,100.00004 99.99998,100.00004 55.22847,0 100.00002,-44.7716 100.00002,-100.00004 0,-55.22846 -44.77155,-99.99998 -100.00002,-99.99998 z m -30.5664,52.14843 82.91013,47.85155 -82.91013,47.85154 z"
       id="path2985"
       inkscape:export-filename="/home/jacobian/.conky/icons/play.png"
       inkscape:export-xdpi="90"
       inkscape:export-ydpi="90"
       inkscape:connector-curvature="0" />
    <path
       inkscape:connector-curvature="0"
       style="fill:#1a1a1a;fill-opacity:1;fill-rule:evenodd;stroke:none"
       d="m 1300,852.36218 c -55.2284,0 -100,44.77152 -100,99.99998 0,55.22844 44.7716,100.00004 100,100.00004 55.2284,0 100,-44.7716 100,-100.00004 0,-55.22846 -44.7716,-99.99998 -100,-99.99998 z m -39.6485,58.78905 h 79.2969 v 82.42185 h -79.2969 z"
       id="path3781-9"
       inkscape:export-filename="/home/jacobian/.conky/icons/stop.png"
       inkscape:export-xdpi="90"
       inkscape:export-ydpi="90" />
  </g>
</svg>
