<?xml version="1.0" encoding="UTF-8" standalone="no"?>
<svg
   xmlns:dc="http://purl.org/dc/elements/1.1/"
   xmlns:cc="http://creativecommons.org/ns#"
   xmlns:rdf="http://www.w3.org/1999/02/22-rdf-syntax-ns#"
   xmlns:svg="http://www.w3.org/2000/svg"
   xmlns="http://www.w3.org/2000/svg"
   xmlns:sodipodi="http://sodipodi.sourceforge.net/DTD/sodipodi-0.dtd"
   xmlns:inkscape="http://www.inkscape.org/namespaces/inkscape"
   inkscape:export-ydpi="90"
   inkscape:export-xdpi="90"
   inkscape:export-filename="/home/jacobian/.conky/themes/02-fan.png"
   sodipodi:docname="icons.svg"
   inkscape:version="1.0beta2 (2b71d25d45, 2019-12-03)"
   version="1.1"
   id="svg4169"
   viewBox="0 0 1874.9999 187.5"
   height="200"
   width="2000">
  <defs
     id="defs4171" />
  <sodipodi:namedview
     inkscape:document-rotation="0"
     inkscape:guide-bbox="true"
     showguides="true"
     units="mm"
     inkscape:window-maximized="0"
     inkscape:window-y="18"
     inkscape:window-x="0"
     inkscape:window-height="1050"
     inkscape:window-width="1920"
     inkscape:showpageshadow="false"
     showgrid="true"
     inkscape:current-layer="layer1"
     inkscape:document-units="px"
     inkscape:cy="-27.497387"
     inkscape:cx="1338.0088"
     inkscape:zoom="2"
     inkscape:pageshadow="2"
     inkscape:pageopacity="0"
     borderopacity="1"
     bordercolor="#ffff00"
     pagecolor="#646464"
     id="base"
     inkscape:pagecheckerboard="true">
    <sodipodi:guide
       inkscape:locked="false"
       inkscape:color="rgb(0,0,255)"
       inkscape:label=""
       id="guide4920"
       orientation="0,1"
       position="0,187.49999" />
    <sodipodi:guide
       inkscape:locked="false"
       inkscape:color="rgb(0,0,255)"
       inkscape:label=""
       id="guide5011"
       orientation="0,1"
       position="0,0" />
    <sodipodi:guide
       id="guide16"
       orientation="1,0"
       position="0,0" />
    <sodipodi:guide
       inkscape:color="rgb(0,0,255)"
       inkscape:locked="false"
       inkscape:label=""
       id="guide18"
       orientation="-1,0"
       position="187.49999,0" />
    <inkscape:grid
       empspacing="5"
       empopacity="0.36470588"
       empcolor="#ffffff"
       opacity="0.10980392"
       color="#ffffff"
       spacingy="4.6874999"
       spacingx="4.6874999"
       id="grid890"
       type="xygrid" />
    <sodipodi:guide
       id="guide920"
       orientation="1,0"
       position="374.99998,9.9999992e-07" />
    <sodipodi:guide
       id="guide928"
       orientation="1,0"
       position="562.49997,0" />
    <sodipodi:guide
       id="guide930"
       orientation="1,0"
       position="749.99996,0" />
    <sodipodi:guide
       id="guide940"
       orientation="1,0"
       position="1499.9999,0" />
    <sodipodi:guide
       id="guide942"
       orientation="1,0"
       position="1312.4999,0" />
    <sodipodi:guide
       id="guide944"
       orientation="1,0"
       position="1124.9999,0" />
    <sodipodi:guide
       id="guide946"
       orientation="1,0"
       position="937.49994,0" />
    <sodipodi:guide
       inkscape:color="rgb(0,0,255)"
       inkscape:locked="false"
       inkscape:label=""
       id="guide1569"
       orientation="0,1"
       position="0,374.99999" />
  </sodipodi:namedview>
  <metadata
     id="metadata4174">
    <rdf:RDF>
      <cc:Work
         rdf:about="">
        <dc:format>image/svg+xml</dc:format>
        <dc:type
           rdf:resource="http://purl.org/dc/dcmitype/StillImage" />
        <dc:title></dc:title>
      </cc:Work>
    </rdf:RDF>
  </metadata>
  <g
     transform="translate(0,-852.36225)"
     id="layer1"
     inkscape:groupmode="layer"
     inkscape:label="cpu">
    <path
       inkscape:export-ydpi="96"
       inkscape:export-xdpi="96"
       inkscape:export-filename="/home/jacobian/.conky/icons/fan.png"
       transform="matrix(0.93749997,0,0,0.93749997,0,852.36225)"
       d="M 700 -200 C 644.60002 -200 600 -155.39998 600 -100 C 600 -44.60002 644.60002 0 700 0 C 755.39998 0 800 -44.60002 800 -100 C 800 -155.39998 755.39998 -200 700 -200 z M 719.07617 -176.71094 L 719.07812 -176.70898 C 728.50828 -176.63816 748.88177 -168.51896 755 -158.14453 L 754.99805 -158.13867 C 755.52015 -157.25339 755.94153 -156.36383 756.24023 -155.44922 C 760.37918 -142.77816 734.56777 -117.06948 727.32031 -110.17578 L 726.57422 -109.89844 C 727.69711 -106.842 728.31055 -103.53542 728.31055 -100.08008 L 728.31055 -100.04297 L 729.19922 -100.04297 C 761.86686 -111.93211 765.42955 -123.29673 771.875 -125.00391 C 778.1446 -126.66446 785.43804 -94.859228 777.85352 -81.4375 L 777.84961 -81.441406 C 777.34405 -80.546558 776.78339 -79.735542 776.14062 -79.019531 C 767.23668 -69.099552 732.06651 -78.600066 722.47266 -81.429688 L 721.88281 -81.916016 C 719.74992 -79.322085 717.15963 -77.125388 714.23828 -75.427734 L 714.64062 -74.736328 C 741.27073 -52.389896 752.8945 -54.986154 757.5957 -50.257812 C 762.16859 -45.658484 738.26933 -23.43936 722.85352 -23.296875 L 722.85352 -23.300781 C 721.82578 -23.291224 720.84382 -23.371614 719.90234 -23.570312 C 706.85945 -26.321342 697.50072 -61.528636 695.1543 -71.251953 L 695.2793 -71.992188 C 691.88411 -72.555996 688.69967 -73.719488 685.83203 -75.371094 L 685.44141 -74.689453 C 679.40391 -40.4539 687.46303 -31.685574 685.71875 -25.25 C 684.02208 -18.990096 652.8313 -28.578051 645 -41.857422 L 645.00586 -41.859375 C 644.48373 -42.744623 644.06039 -43.636104 643.76172 -44.550781 C 639.62273 -57.221811 665.43421 -82.930491 672.68164 -89.824219 L 673.4043 -90.091797 C 672.27853 -93.151669 671.66406 -96.461918 671.66406 -99.921875 L 671.66406 -99.955078 L 670.80078 -99.955078 C 638.13313 -88.065947 634.57048 -76.701309 628.125 -74.994141 C 621.85544 -73.333565 614.56197 -105.13878 622.14648 -118.56055 L 622.15234 -118.55664 C 622.65799 -119.4514 623.21866 -120.26442 623.86133 -120.98047 C 632.76534 -130.90044 667.93544 -121.39993 677.5293 -118.57031 L 678.09961 -118.09766 C 680.23514 -120.69189 682.82946 -122.89138 685.75391 -124.58789 L 685.36328 -125.26367 C 658.73317 -147.61009 647.1094 -145.01384 642.4082 -149.74219 C 637.83529 -154.3415 661.72869 -176.56065 677.14453 -176.70312 L 677.14844 -176.69922 C 678.17615 -176.7087 679.15816 -176.62827 680.09961 -176.42969 C 693.14252 -173.67858 702.50123 -138.46942 704.84766 -128.74609 L 704.72266 -128.00586 C 708.11573 -127.43902 711.29879 -126.27256 714.16406 -124.61914 L 714.5625 -125.31055 C 720.60003 -159.54613 712.53892 -168.31446 714.2832 -174.75 C 714.65435 -176.11937 716.4357 -176.73067 719.07617 -176.71094 z M 699.98828 -121.33789 C 688.20027 -121.33789 678.70898 -111.84859 678.70898 -100.06055 L 678.70898 -99.941406 C 678.70898 -88.153353 688.20027 -78.664062 699.98828 -78.664062 C 711.77632 -78.664062 721.26562 -88.153353 721.26562 -99.941406 L 721.26562 -100.06055 C 721.26563 -111.84859 711.77632 -121.33789 699.98828 -121.33789 z "
       style="fill:#707070;fill-opacity:0.2;stroke:none;stroke-width:8;stroke-miterlimit:4;stroke-dasharray:none"
       id="rect1937" />
    <path
       inkscape:connector-curvature="0"
       id="path1809"
       style="display:inline;opacity:1;fill:#000000;fill-opacity:1;fill-rule:evenodd;stroke:none;stroke-width:0.72366"
       d="m 698.24195,901.75892 c -5.97518,-10.13188 -29.77192,-17.44476 -31.06646,-12.66856 -1.33086,4.91022 4.81902,11.60032 0.21248,37.72155 l -11.11387,19.30125 -20.83944,7.77342 c -5.52969,5.25981 -25.22414,24.87495 -22.06615,34.54276 0.22787,0.69788 0.55011,1.37757 0.9485,2.053 l -0.003,0.002 c 5.97516,10.13196 29.77283,17.44636 31.06737,12.67016 1.33085,-4.91025 -4.81901,-11.60035 -0.21248,-37.72157 l 11.11386,-19.30125 20.83945,-7.77343 c 5.5297,-5.2598 25.2241,-24.87493 22.06615,-34.54276 -0.22794,-0.69784 -0.55015,-1.37754 -0.9485,-2.053 z" />
    <rect
       ry="9.3750048"
       rx="9.3750048"
       y="885.64349"
       x="796.875"
       height="131.25"
       width="112.5"
       id="rect1865"
       style="fill:#000000;fill-opacity:1;stroke-width:0.09375;stroke-miterlimit:4;stroke-dasharray:none" />
    <path
       sodipodi:nodetypes="ccccccc"
       inkscape:export-filename="/home/jacobian/.conky/icons/bat.png"
       inkscape:connector-curvature="0"
       inkscape:export-ydpi="90"
       inkscape:export-xdpi="90"
       id="polygon3"
       d="m 487.49998,880.48725 -56.24999,75 34.6168,0.2899 -15.8668,55.96005 56.24999,-74.99995 -34.6168,-0.28989 z"
       style="display:inline;fill:#000000;fill-opacity:1;stroke:none;stroke-width:1.43591" />
    <path
       inkscape:export-ydpi="96"
       inkscape:export-xdpi="96"
       inkscape:export-filename="/home/jacobian/.conky/icons/pause.png"
       id="path3779-5"
       d="m 1218.75,664.8621 c -51.7767,0 -93.75,41.97334 -93.75,93.75006 0,51.77675 41.9733,93.75005 93.75,93.75005 51.7767,0 93.75,-41.9733 93.75,-93.75005 0,-51.77672 -41.9733,-93.75006 -93.75,-93.75006 z m -30.7159,48.98074 h 19.638 v 89.53863 h -19.638 z m 41.7937,0 h 19.6382 v 89.53863 h -19.6382 z"
       style="fill:#707070;fill-opacity:0.2;fill-rule:evenodd;stroke:none;stroke-width:0.9375"
       inkscape:connector-curvature="0" />
    <path
       inkscape:export-ydpi="96"
       inkscape:export-xdpi="96"
       inkscape:export-filename="/home/jacobian/.conky/icons/stop.png"
       id="path3781-9"
       d="m 1406.25,664.8622 c -51.7766,0 -93.75,41.9733 -93.75,93.74998 0,51.77666 41.9734,93.75003 93.75,93.75003 51.7766,0 93.75,-41.97337 93.75,-93.75003 0,-51.77668 -41.9734,-93.74998 -93.75,-93.74998 z m -37.1705,55.11473 h 74.3409 v 77.27049 h -74.3409 z"
       style="fill:#707070;fill-opacity:0.2;fill-rule:evenodd;stroke:none;stroke-width:0.9375"
       inkscape:connector-curvature="0" />
    <rect
       ry="0"
       rx="0"
       y="889.86224"
       x="37.499996"
       height="112.49999"
       width="112.49999"
       id="rect20"
       style="fill:#000000;fill-opacity:1;stroke-width:0.5625" />
    <rect
       y="899.23724"
       x="46.875"
       height="93.75"
       width="93.749992"
       id="rect22"
       style="fill:#ffffff;stroke-width:1.35907" />
    <rect
       transform="rotate(90)"
       style="fill:#000000;fill-opacity:1;stroke-width:0.702233"
       id="rect24"
       width="74.999992"
       height="75"
       x="908.61224"
       y="-131.25002" />
    <rect
       y="-983.6123"
       x="-131.25005"
       height="75"
       width="74.999992"
       id="rect1077"
       style="fill:#000000;fill-opacity:1;stroke-width:0.702233"
       transform="scale(-1)" />
    <rect
       style="fill:#000000;fill-opacity:1;stroke-width:0.583405"
       id="rect1087"
       width="9.375104"
       height="9.3750038"
       x="28.125"
       y="-917.98724"
       transform="scale(1,-1)" />
    <rect
       y="-950.79974"
       x="28.125"
       height="9.3750029"
       width="28.125"
       id="rect1091"
       style="fill:#000000;fill-opacity:1;stroke-width:0.583405"
       transform="scale(1,-1)" />
    <rect
       transform="scale(1,-1)"
       y="-934.39349"
       x="28.125"
       height="9.3750038"
       width="9.375104"
       id="rect1321"
       style="fill:#000000;fill-opacity:1;stroke-width:0.583405" />
    <rect
       transform="scale(1,-1)"
       y="-967.20599"
       x="28.125"
       height="9.3750038"
       width="9.375104"
       id="rect1323"
       style="fill:#000000;fill-opacity:1;stroke-width:0.583405" />
    <rect
       style="fill:#000000;fill-opacity:1;stroke-width:0.583405"
       id="rect1325"
       width="9.375104"
       height="9.3750038"
       x="28.125"
       y="-983.61224"
       transform="scale(1,-1)" />
    <rect
       transform="scale(-1)"
       y="-917.98724"
       x="-159.375"
       height="9.3750038"
       width="9.375104"
       id="rect1327"
       style="fill:#000000;fill-opacity:1;stroke-width:0.583405" />
    <rect
       transform="scale(-1)"
       style="fill:#000000;fill-opacity:1;stroke-width:0.583405"
       id="rect1329"
       width="28.125"
       height="9.3750029"
       x="-159.375"
       y="-950.79974" />
    <rect
       style="fill:#000000;fill-opacity:1;stroke-width:0.583405"
       id="rect1331"
       width="9.375104"
       height="9.3750038"
       x="-159.375"
       y="-934.39349"
       transform="scale(-1)" />
    <rect
       style="fill:#000000;fill-opacity:1;stroke-width:0.583405"
       id="rect1333"
       width="9.375104"
       height="9.3750038"
       x="-159.375"
       y="-967.20599"
       transform="scale(-1)" />
    <rect
       transform="scale(-1)"
       y="-983.61224"
       x="-159.375"
       height="9.3750038"
       width="9.375104"
       id="rect1335"
       style="fill:#000000;fill-opacity:1;stroke-width:0.583405" />
    <rect
       transform="matrix(0,1,1,0,0,0)"
       y="121.875"
       x="880.48724"
       height="9.3750038"
       width="9.375104"
       id="rect1337"
       style="fill:#000000;fill-opacity:1;stroke-width:0.583405" />
    <rect
       transform="matrix(0,1,1,0,0,0)"
       style="fill:#000000;fill-opacity:1;stroke-width:0.583405"
       id="rect1339"
       width="28.125"
       height="9.3750029"
       x="880.48724"
       y="89.0625" />
    <rect
       style="fill:#000000;fill-opacity:1;stroke-width:0.583405"
       id="rect1341"
       width="9.375104"
       height="9.3750038"
       x="880.48724"
       y="105.46875"
       transform="matrix(0,1,1,0,0,0)" />
    <rect
       style="fill:#000000;fill-opacity:1;stroke-width:0.583405"
       id="rect1343"
       width="9.375104"
       height="9.3750038"
       x="880.48724"
       y="72.65625"
       transform="matrix(0,1,1,0,0,0)" />
    <rect
       transform="matrix(0,1,1,0,0,0)"
       y="56.249996"
       x="880.48724"
       height="9.3750038"
       width="9.375104"
       id="rect1345"
       style="fill:#000000;fill-opacity:1;stroke-width:0.583405" />
    <rect
       style="fill:#000000;fill-opacity:1;stroke-width:0.583405"
       id="rect1347"
       width="9.375104"
       height="9.3750038"
       x="-1011.7372"
       y="121.875"
       transform="rotate(-90)" />
    <rect
       y="89.0625"
       x="-1011.7372"
       height="9.3750029"
       width="28.125"
       id="rect1349"
       style="fill:#000000;fill-opacity:1;stroke-width:0.583405"
       transform="rotate(-90)" />
    <rect
       transform="rotate(-90)"
       y="105.46875"
       x="-1011.7372"
       height="9.3750038"
       width="9.375104"
       id="rect1351"
       style="fill:#000000;fill-opacity:1;stroke-width:0.583405" />
    <rect
       transform="rotate(-90)"
       y="72.65625"
       x="-1011.7372"
       height="9.3750038"
       width="9.375104"
       id="rect1353"
       style="fill:#000000;fill-opacity:1;stroke-width:0.583405" />
    <rect
       style="fill:#000000;fill-opacity:1;stroke-width:0.583405"
       id="rect1355"
       width="9.375104"
       height="9.3750038"
       x="-1011.7372"
       y="56.249996"
       transform="rotate(-90)" />
    <path
       inkscape:export-ydpi="96"
       inkscape:export-xdpi="96"
       inkscape:export-filename="/home/jacobian/.conky/icons/cpu.png"
       transform="matrix(0.93749997,0,0,0.93749997,0,852.36225)"
       d="M 100 -200 C 44.599999 -200 0 -155.4 0 -100 C 1.8947806e-14 -44.599999 44.599999 0 100 0 C 155.4 0 200 -44.599999 200 -100 C 200 -155.4 155.4 -200 100 -200 z M 60 -170 L 70 -170 L 70 -160 L 77.5 -160 L 77.5 -170 L 87.5 -170 L 87.5 -160 L 95 -160 L 95 -170 L 105 -170 L 105 -160 L 112.5 -160 L 112.5 -170 L 122.5 -170 L 122.5 -160 L 130 -160 L 130 -170 L 140 -170 L 140 -160 L 160 -160 L 160 -140 L 170 -140 L 170 -130 L 160 -130 L 160 -122.5 L 170 -122.5 L 170 -112.5 L 160 -112.5 L 160 -105 L 170 -105 L 170 -95 L 160 -95 L 160 -87.5 L 170 -87.5 L 170 -77.5 L 160 -77.5 L 160 -70 L 170 -70 L 170 -60 L 160 -60 L 160 -40 L 140 -40 L 140 -30 L 130 -30 L 130 -40 L 122.5 -40 L 122.5 -30 L 112.5 -30 L 112.5 -40 L 105 -40 L 105 -30 L 95 -30 L 95 -40 L 87.5 -40 L 87.5 -30 L 77.5 -30 L 77.5 -40 L 70 -40 L 70 -30 L 60 -30 L 60 -40 L 40 -40 L 40 -60 L 30 -60 L 30 -70 L 40 -70 L 40 -77.5 L 30 -77.5 L 30 -87.5 L 40 -87.5 L 40 -95 L 30 -95 L 30 -105 L 40 -105 L 40 -112.5 L 30 -112.5 L 30 -122.5 L 40 -122.5 L 40 -130 L 30 -130 L 30 -140 L 40 -140 L 40 -160 L 60 -160 L 60 -170 z M 50 -150 L 50 -105 L 60 -105 L 60 -140 L 95 -140 L 95 -150 L 50 -150 z M 105 -150 L 105 -140 L 140 -140 L 140 -105 L 150 -105 L 150 -150 L 105 -150 z M 50 -95 L 50 -50 L 95 -50 L 95 -60 L 60 -60 L 60 -95 L 50 -95 z M 140 -95 L 140 -60 L 105 -60 L 105 -50 L 150 -50 L 150 -95 L 140 -95 z "
       style="fill:#707070;fill-opacity:0.2;stroke-width:1"
       id="rect1571" />
    <path
       inkscape:export-ydpi="96"
       inkscape:export-xdpi="96"
       inkscape:export-filename="/home/jacobian/.conky/icons/mem.png"
       transform="matrix(0.93749997,0,0,0.93749997,0,852.36225)"
       d="M 300 -200 C 244.6 -200 200 -155.4 200 -100 C 200 -44.599999 244.6 0 300 0 C 355.4 0 400 -44.599999 400 -100 C 400 -155.4 355.4 -200 300 -200 z M 235 -150 L 245 -150 L 245 -140 L 255 -140 L 255 -150 L 265 -150 L 265 -140 L 275 -140 L 275 -150 L 285 -150 L 285 -140 L 295 -140 L 295 -150 L 305 -150 L 305 -140 L 315 -140 L 315 -150 L 325 -150 L 325 -140 L 335 -140 L 335 -150 L 345 -150 L 345 -140 L 355 -140 L 355 -150 L 365 -150 L 365 -140 L 380 -140 L 380 -110 A 9.9999997 9.9999997 0 0 0 379.89844 -110 A 9.9999997 9.9999997 0 0 0 371.33984 -105 A 9.9999997 9.9999997 0 0 0 371.33984 -95 A 9.9999997 9.9999997 0 0 0 380 -90 L 380 -60 L 365 -60 L 365 -50 L 355 -50 L 355 -60 L 345 -60 L 345 -50 L 335 -50 L 335 -60 L 325 -60 L 325 -50 L 315 -50 L 315 -60 L 305 -60 L 305 -50 L 295 -50 L 295 -60 L 285 -60 L 285 -50 L 275 -50 L 275 -60 L 265 -60 L 265 -50 L 255 -50 L 255 -60 L 245 -60 L 245 -50 L 235 -50 L 235 -60 L 220 -60 L 220 -90 A 9.9999997 9.9999997 0 0 0 228.66016 -95 A 9.9999997 9.9999997 0 0 0 228.66016 -105 A 9.9999997 9.9999997 0 0 0 220 -110 L 220 -140 L 235 -140 L 235 -150 z M 240 -130 L 240 -70 L 270 -70 L 270 -130 L 240 -130 z M 285 -130 L 285 -70 L 315 -70 L 315 -130 L 285 -130 z M 330 -130 L 330 -70 L 360 -70 L 360 -130 L 330 -130 z "
       style="fill:#707070;fill-opacity:0.2;stroke-width:1"
       id="rect1573" />
    <path
       inkscape:export-ydpi="96"
       inkscape:export-xdpi="96"
       inkscape:export-filename="/home/jacobian/.conky/icons/bat.png"
       transform="matrix(0.93749997,0,0,0.93749997,0,852.36225)"
       d="M 500 -200 C 444.6 -200 400 -155.4 400 -100 C 400 -44.599999 444.6 0 500 0 C 555.4 0 600 -44.599999 600 -100 C 600 -155.4 555.4 -200 500 -200 z M 520 -170 L 503.07617 -110.30859 L 540 -110 L 480 -30 L 496.92383 -89.691406 L 460 -90 L 520 -170 z "
       style="fill:#707070;fill-opacity:0.2;stroke-width:1"
       id="rect1575" />
    <path
       transform="matrix(0.93749997,0,0,0.93749997,0,852.36225)"
       d="M 681.42969 37.585938 C 668.8835 37.701906 649.43655 55.784186 653.1582 59.527344 C 656.98427 63.375515 666.44426 61.262562 688.11719 79.449219 L 700.01953 100.00977 L 696.08594 123.40625 C 697.99557 131.31959 705.61156 159.97396 716.22656 162.21289 C 716.99277 162.3746 717.7925 162.43943 718.62891 162.43164 L 718.62891 162.43555 C 731.17509 162.3196 750.624 144.2373 746.90234 140.49414 C 743.07627 136.64597 733.61629 138.75892 711.94336 120.57227 L 700.04102 100.01172 L 703.97461 76.615234 C 702.06498 68.70189 694.44898 40.04758 683.83398 37.808594 C 683.06778 37.646972 682.26805 37.58211 681.43164 37.589844 L 681.42969 37.585938 z "
       style="display:inline;opacity:1;fill:#000000;fill-opacity:1;fill-rule:evenodd;stroke:none;stroke-width:0.771904"
       id="rect3016" />
    <rect
       style="fill:#000000;fill-opacity:1;stroke-width:0.124792;stroke-miterlimit:4;stroke-dasharray:none"
       id="rect1817"
       width="43.220886"
       height="43.341534"
       x="634.65784"
       y="924.45062"
       rx="21.610443"
       ry="21.610443" />
    <path
       inkscape:connector-curvature="0"
       id="path1813"
       style="display:inline;opacity:1;fill:#000000;fill-opacity:1;fill-rule:evenodd;stroke:none;stroke-width:0.72366"
       d="m 596.87654,931.96251 c -5.78687,10.2406 -0.22165,34.50562 4.56193,33.23862 4.9178,-1.30254 7.63667,-9.97355 32.56159,-19.04478 l 22.2723,-0.0257 17.15171,14.16077 c 7.31997,2.15896 34.15441,9.40727 40.94797,1.83847 0.49044,-0.5463 0.91796,-1.16519 1.30371,-1.84793 l 0.004,0.002 c 5.78688,-10.24058 0.22256,-34.5072 -4.56104,-33.2402 -4.91779,1.30255 -7.63665,9.97354 -32.56156,19.04478 l -22.27231,0.0257 -17.15171,-14.16077 c -7.31997,-2.15896 -34.15436,-9.40724 -40.94799,-1.83846 -0.49034,0.54634 -0.9179,1.16521 -1.30369,1.84791 z" />
    <rect
       ry="16.234823"
       rx="16.234823"
       y="929.84125"
       x="640.03345"
       height="32.560284"
       width="32.469646"
       id="rect1815"
       style="fill:#ffffff;fill-opacity:1;stroke-width:0.09375;stroke-miterlimit:4;stroke-dasharray:none" />
    <rect
       ry="93.434402"
       rx="186.8688"
       y="895.01849"
       x="806.40778"
       height="93.434402"
       width="93.434402"
       id="rect1863"
       style="fill:#ffffff;fill-opacity:1;stroke-width:0.186869;stroke-miterlimit:4;stroke-dasharray:none" />
    <rect
       style="fill:#000000;fill-opacity:1;stroke-width:0.0381311;stroke-miterlimit:4;stroke-dasharray:none"
       id="rect1867"
       width="19.065556"
       height="19.065556"
       x="843.59222"
       y="932.20294"
       rx="38.131111"
       ry="19.065556" />
    <path
       sodipodi:nodetypes="cccccc"
       inkscape:connector-curvature="0"
       d="m 837.62229,964.96536 -29.45215,21.03696 c -4.64673,4.64733 -4.64668,12.18143 4e-5,16.82878 4.64742,4.6474 12.1824,4.6473 16.8298,-10e-5 l 21.03722,-29.45073 c 3.69369,-5.48032 -2.93544,-12.10945 -8.41491,-8.41491 z"
       style="fill:#ffffff;fill-opacity:1;stroke:#000000;stroke-width:7.5;stroke-miterlimit:4;stroke-dasharray:none"
       id="path1877" />
    <rect
       ry="0"
       rx="0"
       y="852.36224"
       x="937.5"
       height="187.5"
       width="187.49992"
       id="rect1931"
       style="fill:#000000;fill-opacity:1;stroke:none;stroke-width:7.5;stroke-miterlimit:4;stroke-dasharray:none" />
    <path
       inkscape:connector-curvature="0"
       inkscape:export-ydpi="96"
       inkscape:export-xdpi="96"
       inkscape:export-filename="/home/jacobian/.conky/icons/play.png"
       id="path2985"
       d="m 1031.2502,664.86226 c -51.7768,0 -93.7502,41.97325 -93.7502,93.74995 0,51.7767 41.9734,93.75 93.7502,93.75 51.7767,0 93.75,-41.9733 93.75,-93.75 0,-51.7767 -41.9733,-93.74995 -93.75,-93.74995 z m -28.656,48.88915 77.7282,44.8608 -77.7282,44.8608 z"
       style="fill:#707070;fill-opacity:0.2;fill-rule:evenodd;stroke:none;stroke-width:0.9375" />
    <rect
       style="fill:#000000;fill-opacity:1;stroke:none;stroke-width:7.5;stroke-miterlimit:4;stroke-dasharray:none"
       id="rect1933"
       width="187.49992"
       height="187.5"
       x="1125"
       y="852.36224"
       rx="0"
       ry="0" />
    <rect
       ry="0"
       rx="0"
       y="852.36224"
       x="1312.5"
       height="187.5"
       width="187.49992"
       id="rect1935"
       style="fill:#000000;fill-opacity:1;stroke:none;stroke-width:7.5;stroke-miterlimit:4;stroke-dasharray:none" />
    <path
       inkscape:export-ydpi="96"
       inkscape:export-xdpi="96"
       inkscape:export-filename="/home/jacobian/.conky/icons/hdd.png"
       transform="matrix(0.93749997,0,0,0.93749997,0,852.36225)"
       d="M 900 -200 C 844.60002 -200 800 -155.39998 800 -100 C 800 -44.60002 844.60002 0 900 0 C 955.39998 0 1000 -44.60002 1000 -100 C 1000 -155.39998 955.39998 -200 900 -200 z M 850 -170 L 950 -170 C 955.54 -170 960 -165.54 960 -160 L 960 -40 C 960 -34.46 955.54 -30 950 -30 L 850 -30 C 844.46 -30 840 -34.46 840 -40 L 840 -160 C 840 -165.54 844.46 -170 850 -170 z M 900 -160 C 872.39325 -160 850.16797 -137.77472 850.16797 -110.16797 C 850.16797 -96.965536 855.26031 -85.00371 863.58594 -76.107422 L 881.13867 -88.644531 L 881.18164 -88.675781 L 881.22656 -88.705078 C 883.45747 -90.209259 885.97486 -90.671399 888.32812 -90.363281 C 890.68139 -90.055185 892.87135 -88.978268 894.44922 -87.400391 C 897.60496 -84.244657 898.76343 -78.64006 895.75586 -74.177734 L 895.72656 -74.132812 L 887.08398 -62.033203 C 891.20103 -60.934408 895.52716 -60.335938 900 -60.335938 C 927.60675 -60.335938 949.83203 -82.561216 949.83203 -110.16797 C 949.83203 -137.77472 927.60675 -160 900 -160 z M 900 -120.33594 C 905.63323 -120.33594 910.16797 -115.80121 910.16797 -110.16797 C 910.16797 -104.53473 905.63323 -100 900 -100 C 894.36676 -100 889.83203 -104.53473 889.83203 -110.16797 C 889.83203 -115.80121 894.36676 -120.33594 900 -120.33594 z M 887.06055 -82.605469 C 886.66364 -82.58469 886.22016 -82.422027 885.70312 -82.074219 L 885.69922 -82.074219 L 869.64648 -70.607422 L 854.79102 -59.994141 C 854.5839 -59.779527 854.39012 -59.558633 854.20898 -59.330078 L 854.20898 -59.328125 C 853.84715 -58.871378 853.53524 -58.389845 853.27734 -57.888672 L 853.27734 -57.886719 C 853.14859 -57.636404 853.03251 -57.381618 852.92969 -57.123047 L 852.92969 -57.119141 C 852.82696 -56.860581 852.73696 -56.598944 852.66016 -56.333984 L 852.66016 -56.332031 C 852.5066 -55.801514 852.40475 -55.259697 852.35547 -54.714844 L 852.35547 -54.712891 C 852.33094 -54.440795 852.31925 -54.167406 852.32031 -53.894531 C 852.32335 -53.347545 852.37847 -52.800513 852.48633 -52.261719 C 852.54025 -51.992311 852.60729 -51.725471 852.6875 -51.460938 C 852.84786 -50.931892 853.06068 -50.414256 853.32617 -49.916016 C 853.72438 -49.168613 854.24158 -48.463837 854.87695 -47.828125 C 855.08886 -47.616221 855.307 -47.417937 855.5332 -47.232422 L 855.53516 -47.232422 C 855.98721 -46.861851 856.46502 -46.542688 856.96289 -46.277344 L 856.96484 -46.277344 C 857.96103 -45.746688 859.03378 -45.425162 860.12305 -45.314453 C 860.39611 -45.286613 860.66917 -45.272551 860.94336 -45.271484 C 861.76408 -45.267015 862.58599 -45.380437 863.38281 -45.611328 C 863.64842 -45.688299 863.91074 -45.777819 864.16992 -45.880859 C 864.94748 -46.190043 865.69115 -46.616594 866.37695 -47.160156 C 866.60556 -47.34133 866.82832 -47.535019 867.04297 -47.742188 L 879.25195 -64.832031 L 889.12305 -78.648438 C 889.12407 -78.650571 889.12201 -78.65323 889.12305 -78.654297 C 890.05144 -80.034948 889.64803 -80.889079 888.79297 -81.744141 C 888.36497 -82.172141 887.93664 -82.486072 887.44336 -82.578125 C 887.32031 -82.601378 887.19285 -82.609916 887.06055 -82.603516 L 887.06055 -82.605469 z "
       style="fill:#707070;fill-opacity:0.2;stroke:none;stroke-width:8;stroke-miterlimit:4;stroke-dasharray:none"
       id="rect1939" />
  </g>
  <g
     inkscape:label="ram"
     id="layer3"
     inkscape:groupmode="layer">
    <rect
       transform="rotate(-90)"
       ry="0"
       rx="0"
       y="206.24995"
       x="-131.25003"
       height="150.00003"
       width="75.000031"
       id="rect1129"
       style="fill:#ffffff;fill-opacity:1;stroke-width:0.9375" />
    <path
       transform="rotate(-90)"
       sodipodi:arc-type="slice"
       sodipodi:end="3.1415927"
       sodipodi:start="0"
       sodipodi:ry="9.375"
       sodipodi:rx="9.375"
       sodipodi:cy="206.24997"
       sodipodi:cx="-93.75"
       sodipodi:type="arc"
       id="path1161"
       style="fill:#000000;fill-opacity:1;stroke-width:0.9375"
       d="m -84.375,206.24997 a 9.375,9.375 0 0 1 -4.6875,8.11899 9.375,9.375 0 0 1 -9.375,0 9.375,9.375 0 0 1 -4.6875,-8.11899 l 9.375,0 z" />
    <path
       transform="rotate(90)"
       style="fill:#000000;fill-opacity:1;stroke-width:0.9375"
       id="path1191"
       sodipodi:type="arc"
       sodipodi:cx="93.75"
       sodipodi:cy="-356.25"
       sodipodi:rx="9.375"
       sodipodi:ry="9.375"
       sodipodi:start="0"
       sodipodi:end="3.1415927"
       sodipodi:arc-type="slice"
       d="m 103.125,-356.25 a 9.375,9.375 0 0 1 -4.6875,8.11899 9.375,9.375 0 0 1 -9.375,0 9.375,9.375 0 0 1 -4.6875,-8.11899 l 9.375,0 z" />
    <rect
       ry="5.3835156e-05"
       rx="5.3835156e-05"
       transform="rotate(-90)"
       y="224.99994"
       x="-121.87505"
       height="28.125038"
       width="56.250053"
       id="rect1193"
       style="fill:#000000;fill-opacity:1;stroke-width:0.9375" />
    <rect
       transform="rotate(-90)"
       y="309.37497"
       x="-121.87505"
       height="28.125019"
       width="56.250053"
       id="rect1197"
       style="fill:#000000;fill-opacity:1;stroke-width:0.9375" />
    <rect
       style="fill:#000000;fill-opacity:1;stroke-width:0.9375"
       id="rect1357"
       width="56.250053"
       height="28.125038"
       x="-121.87505"
       y="267.18744"
       transform="rotate(-90)" />
    <rect
       transform="rotate(-90)"
       y="220.31247"
       x="-140.625"
       height="9.3749609"
       width="9.3749647"
       id="rect1163"
       style="fill:#000000;fill-opacity:1;stroke-width:0.9375" />
    <rect
       style="fill:#000000;fill-opacity:1;stroke-width:0.9375"
       id="rect1359"
       width="9.3749647"
       height="9.3749609"
       x="-140.625"
       y="239.0625"
       transform="rotate(-90)" />
    <rect
       transform="rotate(-90)"
       y="257.8125"
       x="-140.625"
       height="9.3749609"
       width="9.3749647"
       id="rect1361"
       style="fill:#000000;fill-opacity:1;stroke-width:0.9375" />
    <rect
       style="fill:#000000;fill-opacity:1;stroke-width:0.9375"
       id="rect1363"
       width="9.3749647"
       height="9.3749609"
       x="-140.625"
       y="276.5625"
       transform="rotate(-90)" />
    <rect
       transform="rotate(-90)"
       y="295.31253"
       x="-140.625"
       height="9.3749609"
       width="9.3749647"
       id="rect1365"
       style="fill:#000000;fill-opacity:1;stroke-width:0.9375" />
    <rect
       style="fill:#000000;fill-opacity:1;stroke-width:0.9375"
       id="rect1367"
       width="9.3749647"
       height="9.3749609"
       x="-140.625"
       y="314.06253"
       transform="rotate(-90)" />
    <rect
       transform="rotate(-90)"
       y="332.8125"
       x="-140.625"
       height="9.3749609"
       width="9.3749647"
       id="rect1369"
       style="fill:#000000;fill-opacity:1;stroke-width:0.9375" />
    <rect
       style="fill:#000000;fill-opacity:1;stroke-width:0.9375"
       id="rect1371"
       width="9.3749647"
       height="9.3749609"
       x="-140.625"
       y="220.31247"
       transform="rotate(-90)" />
    <rect
       transform="rotate(-90)"
       y="239.0625"
       x="-140.625"
       height="9.3749609"
       width="9.3749647"
       id="rect1373"
       style="fill:#000000;fill-opacity:1;stroke-width:0.9375" />
    <rect
       style="fill:#000000;fill-opacity:1;stroke-width:0.9375"
       id="rect1375"
       width="9.3749647"
       height="9.3749609"
       x="-140.625"
       y="257.8125"
       transform="rotate(-90)" />
    <rect
       transform="rotate(-90)"
       y="276.5625"
       x="-140.625"
       height="9.3749609"
       width="9.3749647"
       id="rect1377"
       style="fill:#000000;fill-opacity:1;stroke-width:0.9375" />
    <rect
       style="fill:#000000;fill-opacity:1;stroke-width:0.9375"
       id="rect1379"
       width="9.3749647"
       height="9.3749609"
       x="-140.625"
       y="295.31253"
       transform="rotate(-90)" />
    <rect
       transform="rotate(-90)"
       y="314.06253"
       x="-140.625"
       height="9.3749609"
       width="9.3749647"
       id="rect1381"
       style="fill:#000000;fill-opacity:1;stroke-width:0.9375" />
    <rect
       style="fill:#000000;fill-opacity:1;stroke-width:0.9375"
       id="rect1383"
       width="9.3749647"
       height="9.3749609"
       x="-140.625"
       y="332.8125"
       transform="rotate(-90)" />
    <rect
       style="fill:#000000;fill-opacity:1;stroke-width:0.9375"
       id="rect1415"
       width="9.3749647"
       height="9.3749609"
       x="-56.25"
       y="220.31247"
       transform="rotate(-90)" />
    <rect
       transform="rotate(-90)"
       y="239.0625"
       x="-56.25"
       height="9.3749609"
       width="9.3749647"
       id="rect1417"
       style="fill:#000000;fill-opacity:1;stroke-width:0.9375" />
    <rect
       style="fill:#000000;fill-opacity:1;stroke-width:0.9375"
       id="rect1419"
       width="9.3749647"
       height="9.3749609"
       x="-56.25"
       y="257.8125"
       transform="rotate(-90)" />
    <rect
       transform="rotate(-90)"
       y="276.5625"
       x="-56.25"
       height="9.3749609"
       width="9.3749647"
       id="rect1421"
       style="fill:#000000;fill-opacity:1;stroke-width:0.9375" />
    <rect
       style="fill:#000000;fill-opacity:1;stroke-width:0.9375"
       id="rect1423"
       width="9.3749647"
       height="9.3749609"
       x="-56.25"
       y="295.31253"
       transform="rotate(-90)" />
    <rect
       transform="rotate(-90)"
       y="314.06253"
       x="-56.25"
       height="9.3749609"
       width="9.3749647"
       id="rect1425"
       style="fill:#000000;fill-opacity:1;stroke-width:0.9375" />
    <rect
       style="fill:#000000;fill-opacity:1;stroke-width:0.9375"
       id="rect1427"
       width="9.3749647"
       height="9.3749609"
       x="-56.25"
       y="332.8125"
       transform="rotate(-90)" />
    <rect
       transform="rotate(-90)"
       y="220.31247"
       x="-56.25"
       height="9.3749609"
       width="9.3749647"
       id="rect1429"
       style="fill:#000000;fill-opacity:1;stroke-width:0.9375" />
    <rect
       style="fill:#000000;fill-opacity:1;stroke-width:0.9375"
       id="rect1431"
       width="9.3749647"
       height="9.3749609"
       x="-56.25"
       y="239.0625"
       transform="rotate(-90)" />
    <rect
       transform="rotate(-90)"
       y="257.8125"
       x="-56.25"
       height="9.3749609"
       width="9.3749647"
       id="rect1433"
       style="fill:#000000;fill-opacity:1;stroke-width:0.9375" />
    <rect
       style="fill:#000000;fill-opacity:1;stroke-width:0.9375"
       id="rect1435"
       width="9.3749647"
       height="9.3749609"
       x="-56.25"
       y="276.5625"
       transform="rotate(-90)" />
    <rect
       transform="rotate(-90)"
       y="295.31253"
       x="-56.25"
       height="9.3749609"
       width="9.3749647"
       id="rect1437"
       style="fill:#000000;fill-opacity:1;stroke-width:0.9375" />
    <rect
       style="fill:#000000;fill-opacity:1;stroke-width:0.9375"
       id="rect1439"
       width="9.3749647"
       height="9.3749609"
       x="-56.25"
       y="314.06253"
       transform="rotate(-90)" />
    <rect
       transform="rotate(-90)"
       y="332.8125"
       x="-56.25"
       height="9.3749609"
       width="9.3749647"
       id="rect1441"
       style="fill:#000000;fill-opacity:1;stroke-width:0.9375" />
  </g>
</svg>
